# File created by Blade
# Date/Time:  Wed Jan 21 14:58:10 2015
# Frame Rate: 120.000 fps
#------------------------------------------------------
:FULLY-SPECIFIED
:DEGREES
704
root 19.400776 35.433592 -22.527423 -171.312768 -2.911586 -176.524111
Spine -14.533865 -18.483334 2.700849
Head 14.875365 -26.589040 0.059534
LeftShoulder -3.590416 -36.264527 15.650592
LeftArm 12.041805 14.496640 -14.408725
LeftForeArm 13.797130 0.000000 -1.531352
LeftHand -10.802490 -0.000000 -4.403981
LeftHandThumb1 -26.253704 0.000000 33.147579
RightShoulder -10.727417 -7.553823 -12.895866
RightArm -1.165033 38.536180 11.220852
RightForeArm -30.832776 -0.000000 3.197735
RightHand -9.719711 -0.000000 3.314146
RightHandThumb1 -24.326973 -0.000000 -32.862282
LeftUpLeg -2.840561 7.481835 9.839713
LeftLeg -3.946169 -0.000000 0.000000
LeftFoot -19.324309 25.223023 -15.266443
LeftToeBase 25.100073 -0.000000 -0.000000
RightUpLeg -1.503224 -3.603148 3.182486
RightLeg -4.308097 -0.000000 0.000000
RightFoot -20.610251 -26.434392 16.499088
RightToeBase 22.922169 -0.000000 -0.000000
705
root 19.385359 35.431863 -22.530985 -171.279349 -3.611492 -176.655035
Spine -14.678633 -17.452570 2.510706
Head 14.952494 -26.517177 -0.141689
LeftShoulder -3.774924 -36.231349 15.682324
LeftArm 11.817119 14.449459 -14.206256
LeftForeArm 13.843113 -0.000000 -1.543962
LeftHand -10.742259 -0.000000 -4.372426
LeftHandThumb1 -26.253704 0.000000 33.147579
RightShoulder -10.609719 -7.355230 -12.920720
RightArm -0.751402 38.573506 11.096315
RightForeArm -30.844540 -0.000000 3.124295
RightHand -9.561954 0.000000 3.378121
RightHandThumb1 -24.326973 -0.000000 -32.862282
LeftUpLeg -3.084279 6.864507 9.761137
LeftLeg -3.909225 -0.000000 0.000000
LeftFoot -19.244319 25.135111 -15.221902
LeftToeBase 25.148357 -0.000000 -0.000000
RightUpLeg -1.471634 -4.012482 3.132068
RightLeg -4.326908 -0.000000 0.000000
RightFoot -20.758275 -26.773476 16.466602
RightToeBase 22.892663 -0.000000 -0.000000
706
root 19.369510 35.430958 -22.532571 -171.264579 -4.246472 -176.763195
Spine -14.761197 -16.271779 2.292009
Head 14.959118 -26.485682 -0.286776
LeftShoulder -3.855889 -36.277540 15.653406
LeftArm 11.578177 14.360680 -13.997191
LeftForeArm 13.986969 -0.000000 -1.558296
LeftHand -10.744757 0.000000 -4.371691
LeftHandThumb1 -26.253704 0.000000 33.147579
RightShoulder -10.559196 -7.116091 -12.938455
RightArm -0.401701 38.542794 10.958986
RightForeArm -30.868978 -0.000000 3.048552
RightHand -9.365253 -0.000000 3.391298
RightHandThumb1 -24.326973 -0.000000 -32.862282
LeftUpLeg -3.284982 6.286028 9.706775
LeftLeg -3.882118 -0.000000 0.000000
LeftFoot -19.138504 25.066914 -15.143884
LeftToeBase 25.166853 -0.000000 -0.000000
RightUpLeg -1.452689 -4.282755 3.075414
RightLeg -4.269426 -0.000000 0.000000
RightFoot -20.923141 -27.064637 16.445007
RightToeBase 22.836744 -0.000000 -0.000000
707
root 19.352731 35.430169 -22.536229 -171.266248 -4.871789 -176.864401
Spine -14.836349 -15.178677 2.099129
Head 14.980495 -26.441488 -0.432489
LeftShoulder -4.086732 -36.271923 15.717099
LeftArm 11.363924 14.352123 -13.811006
LeftForeArm 13.908749 -0.000000 -1.546522
LeftHand -10.784106 -0.000000 -4.235139
LeftHandThumb1 -26.253704 0.000000 33.147579
RightShoulder -10.371208 -6.968806 -13.005241
RightArm -0.146683 38.614328 10.876142
RightForeArm -31.014627 -0.000000 3.112993
RightHand -9.171590 -0.000000 3.541303
RightHandThumb1 -24.326973 -0.000000 -32.862282
LeftUpLeg -3.468758 5.712587 9.658257
LeftLeg -3.842860 -0.000000 0.000000
LeftFoot -19.079062 25.005355 -15.117133
LeftToeBase 25.178034 -0.000000 -0.000000
RightUpLeg -1.388040 -4.567028 3.026111
RightLeg -4.278532 -0.000000 0.000000
RightFoot -21.046478 -27.376196 16.490933
RightToeBase 22.716273 -0.000000 -0.000000
708
root 19.334138 35.429055 -22.536820 -171.280540 -5.494735 -176.970923
Spine -14.893511 -14.059923 1.885084
Head 15.037668 -26.400027 -0.593707
LeftShoulder -4.230799 -36.334924 15.760411
LeftArm 11.123143 14.399242 -13.644442
LeftForeArm 13.940275 -0.000000 -1.642569
LeftHand -10.664390 -0.000000 -4.131010
LeftHandThumb1 -26.253704 0.000000 33.147579
RightShoulder -10.182042 -6.821894 -13.049599
RightArm 0.102576 38.629804 10.795618
RightForeArm -31.201993 -0.000000 3.255632
RightHand -9.554198 -0.000000 3.670610
RightHandThumb1 -24.326973 -0.000000 -32.862282
LeftUpLeg -3.646867 5.073781 9.608740
LeftLeg -3.788997 -0.000000 0.000000
LeftFoot -19.032399 24.993242 -15.090253
LeftToeBase 25.177274 -0.000000 -0.000000
RightUpLeg -1.332690 -4.791890 2.964553
RightLeg -4.242199 -0.000000 0.000000
RightFoot -21.238503 -27.752190 16.518390
RightToeBase 22.647881 -0.000000 -0.000000
709
root 19.316769 35.428494 -22.538294 -171.285902 -6.055372 -177.060377
Spine -14.968694 -12.924787 1.684861
Head 15.091221 -26.289666 -0.767172
LeftShoulder -4.413056 -36.189619 15.791497
LeftArm 10.963308 14.416570 -13.369695
LeftForeArm 13.751813 -0.000000 -1.704215
LeftHand -10.598056 0.000000 -4.250976
LeftHandThumb1 -26.253704 0.000000 33.147579
RightShoulder -10.012076 -6.709279 -13.085175
RightArm 0.560135 38.578564 10.790387
RightForeArm -31.228659 -0.000000 3.127456
RightHand -9.647566 -0.000000 3.619963
RightHandThumb1 -24.326973 -0.000000 -32.862282
LeftUpLeg -3.810479 4.514307 9.571242
LeftLeg -3.746037 -0.000000 0.000000
LeftFoot -18.996346 24.969271 -15.086452
LeftToeBase 25.197543 -0.000000 -0.000000
RightUpLeg -1.276993 -5.002907 2.922690
RightLeg -4.248627 -0.000000 0.000000
RightFoot -21.405695 -28.140543 16.590405
RightToeBase 22.604847 -0.000000 -0.000000
710
root 19.295834 35.428168 -22.539329 -171.308832 -6.629250 -177.154042
Spine -14.984426 -11.732218 1.480185
Head 15.035812 -26.242235 -0.924826
LeftShoulder -4.639344 -36.051005 15.853412
LeftArm 10.866378 14.137680 -13.237436
LeftForeArm 13.838995 -0.000000 -1.785231
LeftHand -10.402065 0.000000 -4.384218
LeftHandThumb1 -26.253704 0.000000 33.147579
RightShoulder -9.924842 -6.515368 -13.116773
RightArm 0.961995 38.410141 10.719476
RightForeArm -31.174891 0.000000 3.037118
RightHand -9.452596 -0.000000 3.756611
RightHandThumb1 -24.326973 -0.000000 -32.862282
LeftUpLeg -3.969652 3.958137 9.525456
LeftLeg -3.681597 -0.000000 0.000000
LeftFoot -18.939698 24.926163 -15.045982
LeftToeBase 25.121952 -0.000000 -0.000000
RightUpLeg -1.197901 -5.307412 2.869464
RightLeg -4.244050 -0.000000 0.000000
RightFoot -21.538283 -28.397956 16.650137
RightToeBase 22.604136 -0.000000 -0.000000
711
root 19.274599 35.426761 -22.541269 -171.332574 -7.207882 -177.238738
Spine -15.023135 -10.542885 1.270559
Head 15.041251 -26.245358 -1.055910
LeftShoulder -4.863035 -35.898401 15.927576
LeftArm 10.776689 14.077218 -13.079970
LeftForeArm 13.839602 0.000000 -1.772466
LeftHand -10.657636 -0.000000 -4.343827
LeftHandThumb1 -26.253704 0.000000 33.147579
RightShoulder -9.790791 -6.623185 -13.140398
RightArm 1.336557 38.494607 10.716019
RightForeArm -31.233353 -0.000000 2.996763
RightHand -9.389273 -0.000000 3.743802
RightHandThumb1 -24.326973 -0.000000 -32.862282
LeftUpLeg -4.120672 3.366298 9.491438
LeftLeg -3.628863 -0.000000 0.000000
LeftFoot -18.907164 24.923460 -15.003755
LeftToeBase 25.130471 -0.000000 -0.000000
RightUpLeg -1.118737 -5.662186 2.819829
RightLeg -4.216949 -0.000000 0.000000
RightFoot -21.657943 -28.555563 16.665778
RightToeBase 22.585232 -0.000000 -0.000000
